<?xml version="1.0" encoding="iso-8859-1"?>
<!-- Uploaded to: SVG Repo, www.svgrepo.com, Generator: SVG Repo Mixer Tools -->
<svg fill="#000000" height="800px" width="800px" version="1.1" id="Layer_1" xmlns="http://www.w3.org/2000/svg" xmlns:xlink="http://www.w3.org/1999/xlink" 
	 viewBox="0 0 512 512" xml:space="preserve">
<g>
	<g>
		<path d="M444.97,384.626V215.346v-33.203c0-8.574-5.615-15.852-13.358-18.382v-9.8C431.612,69.068,362.545,0,277.651,0
			S123.69,69.068,123.69,153.961v135.954c0,6.041,4.898,10.94,10.94,10.94c6.042,0,10.94-4.899,10.94-10.94V153.961
			c0-72.83,59.251-132.081,132.081-132.081c72.83,0,132.081,59.251,132.081,132.081v8.839h-20.863v-8.839
			c0-61.326-49.892-111.218-111.218-111.218c-61.32,0-111.207,49.892-111.207,111.218V389.47H145.57v-30.085
			c0-6.041-4.898-10.94-10.94-10.94c-6.042,0-10.94,4.899-10.94,10.94v35.313c-11.775,6.784-19.725,19.49-19.725,34.026v19.824
			H93.899c-14.026,0-27.214,5.462-37.127,15.375c-9.922,9.907-15.386,23.097-15.386,37.138c0,6.041,4.898,10.94,10.94,10.94h206.955
			c6.042,0,10.94-4.899,10.94-10.94c0-0.236-0.014-0.468-0.018-0.703c9.452,7.292,21.283,11.644,34.118,11.644h84.655
			c1.504,0,2.971-0.073,4.401-0.186c1.631,0.115,3.309,0.186,5.029,0.186c39.815,0,72.205-32.391,72.205-72.205
			C470.613,418.5,461.119,398.282,444.97,384.626z M371.824,184.681h6.105h42.743h2.418v19.725h-51.266V184.681z M125.845,428.723
			c0-9.579,7.798-17.373,17.384-17.373h25.162c9.579,0,17.373,7.794,17.373,17.373v19.824h-59.919V428.723z M65.267,490.12
			c1.516-3.978,3.871-7.623,6.972-10.72c5.785-5.786,13.478-8.972,21.66-8.972h21.005h81.8h21.005
			c13.039,0,24.201,8.188,28.614,19.692H65.267z M248.801,324.726h-10.689c-6.042,0-10.94,4.899-10.94,10.94
			c0,6.041,4.898,10.94,10.94,10.94h10.229v13.872h-10.229c-6.042,0-10.94,4.899-10.94,10.94s4.898,10.94,10.94,10.94h10.229v73.66
			c0,0.829,0.027,1.652,0.062,2.473c-8.641-6.248-19.24-9.945-30.695-9.945h-10.065v-19.824c0-14.371-7.768-26.956-19.32-33.795
			V153.961c0-49.26,40.072-89.337,89.327-89.337c49.26,0,89.337,40.077,89.337,89.337v8.988
			c-9.585,1.141-17.045,9.307-17.045,19.193v25.643C295.248,220.466,253.552,267.436,248.801,324.726z M345.406,488.838
			c0.406,0.438,0.828,0.856,1.244,1.282h-42.328c-18.803,0-34.101-15.297-34.101-34.101V335.666
			c0-60.312,49.068-109.38,109.38-109.38h43.487v145.626c-7.835-2.852-16.154-4.322-24.681-4.322
			c-39.82,0-72.216,32.391-72.216,72.205C326.192,458.041,333.016,475.458,345.406,488.838z M398.408,490.12
			c-1.442,0-2.837-0.057-4.181-0.172c-25.881-2.122-46.154-24.153-46.154-50.153c0-27.749,22.581-50.325,50.336-50.325
			c10.576,0,20.69,3.242,29.25,9.375c0.001,0.001,0.002,0.001,0.003,0.002c13.195,9.447,21.072,24.754,21.072,40.948
			C448.733,467.544,426.157,490.12,398.408,490.12z"/>
	</g>
</g>
<g>
	<g>
		<path d="M420.671,428.855c-6.042,0-10.94,4.899-10.94,10.94c0,6.25-5.08,11.334-11.323,11.334
			c-6.249,0-11.334-5.084-11.334-11.334c0-6.25,5.084-11.334,11.334-11.334c6.042,0,10.94-4.899,10.94-10.94
			c0-6.041-4.898-10.94-10.94-10.94c-18.314,0-33.214,14.899-33.214,33.214c0,18.315,14.901,33.214,33.214,33.214
			c18.308,0,33.203-14.899,33.203-33.214C431.612,433.754,426.714,428.855,420.671,428.855z"/>
	</g>
</g>
<g>
	<g>
		<path d="M134.63,312.525c-6.042,0-10.94,4.899-10.94,10.94v3.282c0,6.041,4.898,10.94,10.94,10.94s10.94-4.899,10.94-10.94v-3.282
			C145.57,317.424,140.672,312.525,134.63,312.525z"/>
	</g>
</g>
<g>
	<g>
		<path d="M406.756,257.094h-24.801c-6.042,0-10.94,4.899-10.94,10.94c0,6.041,4.898,10.94,10.94,10.94h24.801
			c6.042,0,10.94-4.899,10.94-10.94C417.696,261.993,412.798,257.094,406.756,257.094z"/>
	</g>
</g>
<g>
	<g>
		<path d="M406.756,289.915h-24.801c-6.042,0-10.94,4.899-10.94,10.94c0,6.041,4.898,10.94,10.94,10.94h24.801
			c6.042,0,10.94-4.899,10.94-10.94C417.696,294.814,412.798,289.915,406.756,289.915z"/>
	</g>
</g>
<g>
	<g>
		<path d="M406.756,322.735h-24.801c-6.042,0-10.94,4.899-10.94,10.94s4.898,10.94,10.94,10.94h24.801
			c6.042,0,10.94-4.899,10.94-10.94S412.798,322.735,406.756,322.735z"/>
	</g>
</g>
</svg>