<svg id="visual" viewBox="0 0 1920 1080" width="1920" height="1080" xmlns="http://www.w3.org/2000/svg" xmlns:xlink="http://www.w3.org/1999/xlink" version="1.1"><rect x="0" y="0" width="1920" height="1080" fill="#dae8f3"></rect><defs><linearGradient id="grad1_0" x1="43.8%" y1="0%" x2="100%" y2="100%"><stop offset="14.444444444444446%" stop-color="#9ed3dd" stop-opacity="1"></stop><stop offset="85.55555555555554%" stop-color="#9ed3dd" stop-opacity="1"></stop></linearGradient></defs><defs><linearGradient id="grad1_1" x1="43.8%" y1="0%" x2="100%" y2="100%"><stop offset="14.444444444444446%" stop-color="#9ed3dd" stop-opacity="1"></stop><stop offset="85.55555555555554%" stop-color="#dae8f3" stop-opacity="1"></stop></linearGradient></defs><defs><linearGradient id="grad2_0" x1="0%" y1="0%" x2="56.3%" y2="100%"><stop offset="14.444444444444446%" stop-color="#9ed3dd" stop-opacity="1"></stop><stop offset="85.55555555555554%" stop-color="#9ed3dd" stop-opacity="1"></stop></linearGradient></defs><defs><linearGradient id="grad2_1" x1="0%" y1="0%" x2="56.3%" y2="100%"><stop offset="14.444444444444446%" stop-color="#dae8f3" stop-opacity="1"></stop><stop offset="85.55555555555554%" stop-color="#9ed3dd" stop-opacity="1"></stop></linearGradient></defs><g transform="translate(1920, 0)"><path d="M0 972C-86.5 866.7 -173.1 761.3 -303.1 731.7C-433.1 702.1 -606.6 748.1 -687.3 687.3C-768.1 626.5 -756.1 458.8 -788.1 326.4C-820.1 194.1 -896 97 -972 0L0 0Z" fill="#bdddeb"></path><path d="M0 486C-43.3 433.3 -86.5 380.7 -151.5 365.9C-216.5 351 -303.3 374.1 -343.7 343.7C-384 313.2 -378 229.4 -394 163.2C-410 97 -448 48.5 -486 0L0 0Z" fill="#9ed3dd"></path></g><g transform="translate(0, 1080)"><path d="M0 -972C144.2 -975 288.3 -978 372 -898C455.6 -818 478.7 -655.1 560 -560C641.3 -465 780.8 -437.9 859.2 -355.9C937.6 -273.9 954.8 -136.9 972 0L0 0Z" fill="#bdddeb"></path><path d="M0 -486C72.1 -487.5 144.2 -489 186 -449C227.8 -409 239.4 -327.5 280 -280C320.7 -232.5 390.4 -219 429.6 -177.9C468.8 -136.9 477.4 -68.5 486 0L0 0Z" fill="#9ed3dd"></path></g></svg>